<svg width="100" height="100" viewBox="0 0 100 100" fill="none" xmlns="http://www.w3.org/2000/svg">
<g id="vscode">
<g id="vscode_2">
<path id="Vector" d="M0.951416 35.4984C0.951416 35.4984 -1.48421 33.7427 1.43854 31.3984L8.24814 25.3093C8.24814 25.3093 10.1966 23.2593 12.2568 25.0455L75.0959 72.6214V95.4351C75.0959 95.4351 75.0655 99.0175 70.4682 98.6217L0.951416 35.4984Z" fill="#2489CA"/>
<path id="Vector_2" d="M17.1484 50.2036L0.95144 64.929C0.95144 64.929 -0.712906 66.1671 0.95144 68.3795L8.47144 75.2195C8.47144 75.2195 10.2576 77.1376 12.8962 74.9556L30.0673 61.9352L17.1484 50.2036Z" fill="#1070B3"/>
<path id="Vector_3" d="M45.5843 50.3253L75.2888 27.6435L75.096 4.95149C75.096 4.95149 73.8275 -0.000959277 69.5956 2.57675L30.0673 38.5531L45.5843 50.3253Z" fill="#0877B9"/>
<path id="Vector_4" d="M70.4683 98.6524C72.1936 100.418 74.2842 99.8397 74.2842 99.8397L97.4327 88.4329C100.396 86.4133 99.98 83.9067 99.98 83.9067V15.7902C99.98 12.7964 96.9152 11.7613 96.9152 11.7613L76.8517 2.08978C72.4676 -0.619855 69.5956 2.57691 69.5956 2.57691C69.5956 2.57691 73.2896 -0.081986 75.096 4.95165V95.0192C75.096 95.6383 74.9641 96.2472 74.7002 96.7952C74.1725 97.8608 73.0258 98.8553 70.2755 98.4392L70.4683 98.6524Z" fill="#3C99D4"/>
</g>
</g>
</svg>
